<svg xmlns="http://www.w3.org/2000/svg" viewBox="0 0 400 400" opacity="0.03">
  <defs>
    <linearGradient id="leafGrad1" x1="0%" y1="0%" x2="100%" y2="100%">
      <stop offset="0%" style="stop-color:#657F38"/>
      <stop offset="100%" style="stop-color:#9EAB57"/>
    </linearGradient>
  </defs>
  
  <!-- Leaf 1 -->
  <path d="M50 100 Q80 60 120 80 Q100 120 50 100" fill="url(#leafGrad1)"/>
  
  <!-- Leaf 2 -->
  <path d="M150 50 Q190 30 210 70 Q170 90 150 50" fill="url(#leafGrad1)"/>
  
  <!-- Leaf 3 -->
  <path d="M280 80 Q320 40 350 80 Q330 120 280 80" fill="url(#leafGrad1)"/>
  
  <!-- Leaf 4 -->
  <path d="M80 200 Q120 170 150 200 Q130 240 80 200" fill="url(#leafGrad1)"/>
  
  <!-- Leaf 5 -->
  <path d="M200 180 Q240 150 270 190 Q250 230 200 180" fill="url(#leafGrad1)"/>
  
  <!-- Leaf 6 -->
  <path d="M320 160 Q360 130 380 170 Q350 200 320 160" fill="url(#leafGrad1)"/>
  
  <!-- Leaf 7 -->
  <path d="M40 320 Q80 290 110 320 Q90 360 40 320" fill="url(#leafGrad1)"/>
  
  <!-- Leaf 8 -->
  <path d="M160 300 Q200 270 230 310 Q210 350 160 300" fill="url(#leafGrad1)"/>
  
  <!-- Leaf 9 -->
  <path d="M300 280 Q340 250 370 290 Q350 330 300 280" fill="url(#leafGrad1)"/>
  
  <!-- Stem lines -->
  <line x1="70" y1="100" x2="40" y2="130" stroke="#657F38" stroke-width="1" opacity="0.5"/>
  <line x1="170" y1="60" x2="140" y2="90" stroke="#657F38" stroke-width="1" opacity="0.5"/>
  <line x1="300" y1="90" x2="270" y2="120" stroke="#657F38" stroke-width="1" opacity="0.5"/>
  <line x1="100" y1="210" x2="70" y2="240" stroke="#657F38" stroke-width="1" opacity="0.5"/>
  <line x1="220" y1="190" x2="190" y2="220" stroke="#657F38" stroke-width="1" opacity="0.5"/>
  <line x1="340" y1="170" x2="310" y2="200" stroke="#657F38" stroke-width="1" opacity="0.5"/>
  <line x1="60" y1="330" x2="30" y2="360" stroke="#657F38" stroke-width="1" opacity="0.5"/>
  <line x1="180" y1="310" x2="150" y2="340" stroke="#657F38" stroke-width="1" opacity="0.5"/>
  <line x1="320" y1="290" x2="290" y2="320" stroke="#657F38" stroke-width="1" opacity="0.5"/>
</svg>
